# xmcd
#
# Track frame offsets:
# 150
# 13522
# 25545
# 35757
# 54425
# 68997
# 82425
# 97965
# 110917
# 123807
# 142912
# 150915
# 166490
# 179950
# 191827
# 203152
#
# Disc length: 2878 seconds
#
#
# Revision: 2
# Processed by: cddbd v1.4PL0 Copyright (c) Steve Scherf et al.
# Submitted via: FreeRIP 2.30 
#
DISCID=de0b3c10
DTITLE=Major Dundee - Twist The Dial
DYEAR=1997
DGENRE=Country
TTITLE0=Twist The Dial (Radio Mix)
TTITLE1=La Linda
TTITLE2=Out In The Country
TTITLE3=It Turned Out To Be You
TTITLE4=Soul Rhythm
TTITLE5=The Longer The Distance
TTITLE6=Sweet Little Liza
TTITLE7=Shoot The Moon
TTITLE8=Heartless
TTITLE9=Hey Suzy
TTITLE10=Sweet Jennies House
TTITLE11=She Loves Me Easy
TTITLE12=A Good Old Country Song
TTITLE13=Raised On Love
TTITLE14=Goin' Loco
TTITLE15=Twist The Dial (Original Mix)
EXTD=YEAR: 1997 ID3G: 2
EXTT0=
EXTT1=
EXTT2=
EXTT3=
EXTT4=
EXTT5=
EXTT6=
EXTT7=
EXTT8=
EXTT9=
EXTT10=
EXTT11=
EXTT12=
EXTT13=
EXTT14=
EXTT15=
PLAYORDER=
